<?xml version="1.0" standalone="no"?>
<!DOCTYPE svg PUBLIC "-//W3C//DTD SVG 20010904//EN"
 "http://www.w3.org/TR/2001/REC-SVG-20010904/DTD/svg10.dtd">
<svg version="1.0" xmlns="http://www.w3.org/2000/svg"
 width="500.000000pt" height="500.000000pt" viewBox="0 0 500.000000 500.000000"
 preserveAspectRatio="xMidYMid meet">

<g transform="translate(0.000000,500.000000) scale(0.100000,-0.100000)"
fill="#000000" stroke="none">
<path d="M0 2500 l0 -2500 2500 0 2500 0 0 2500 0 2500 -2500 0 -2500 0 0
-2500z m2748 1401 c97 -28 191 -71 264 -122 51 -34 66 -40 94 -35 45 9 99 -15
118 -53 48 -93 -32 -193 -129 -161 -44 15 -68 49 -75 109 -5 42 -9 49 -60 83
-124 84 -292 131 -465 130 -176 -1 -334 -49 -470 -142 -41 -28 -45 -34 -45
-73 0 -51 -21 -84 -66 -103 -44 -18 -86 -9 -121 28 -41 43 -40 106 4 150 28
28 39 32 84 31 45 -1 61 5 121 44 85 55 189 99 293 124 112 26 347 21 453 -10z
m-78 -225 c30 -8 68 -19 84 -25 l28 -11 -46 -50 c-62 -66 -79 -109 -80 -195 0
-84 24 -144 79 -200 102 -101 260 -110 378 -20 52 40 49 44 68 -69 22 -128 -5
-277 -74 -411 -58 -113 -181 -236 -294 -292 -115 -58 -207 -77 -346 -70 -187
8 -312 63 -447 197 -136 136 -191 261 -198 456 -4 101 -1 132 17 199 87 317
371 526 691 510 47 -2 110 -11 140 -19z m-717 -1226 c21 -23 27 -40 27 -75 0
-45 1 -46 63 -85 139 -89 286 -130 464 -130 169 0 338 50 466 139 41 28 45 34
49 82 6 57 34 93 83 105 61 15 123 -29 132 -92 10 -79 -43 -131 -124 -122 -31
4 -46 -2 -83 -28 -68 -49 -204 -111 -295 -135 -50 -13 -125 -23 -200 -26 -196
-8 -370 39 -536 144 -63 41 -78 46 -121 44 -44 -2 -52 1 -83 32 -39 39 -45 78
-20 127 35 67 127 77 178 20z m-811 -570 c20 -6 47 -19 60 -30 l23 -19 -31
-31 c-29 -30 -31 -30 -60 -15 -40 21 -107 20 -126 -2 -45 -53 -21 -89 71 -104
80 -12 117 -31 141 -72 45 -73 15 -170 -65 -211 -72 -37 -204 -23 -270 27 -20
16 -19 16 12 49 32 32 34 32 60 17 57 -33 153 -31 175 3 12 20 9 64 -5 76 -7
6 -44 16 -82 22 -79 13 -115 31 -139 70 -23 39 -21 117 4 158 37 60 139 87
232 62z m398 7 c0 -2 40 -113 90 -248 49 -134 90 -248 90 -252 0 -4 -23 -7
-52 -5 -51 3 -52 3 -66 46 l-14 42 -88 0 -88 0 -14 -42 c-14 -43 -15 -43 -66
-46 -29 -2 -52 -1 -52 2 0 3 36 105 81 228 45 123 86 235 91 251 9 23 15 27
49 27 21 0 39 -1 39 -3z m430 -149 l99 -153 3 150 3 150 48 3 47 3 0 -255 0
-256 -44 0 -44 0 -94 146 -93 146 -3 -146 -3 -146 -54 0 -55 0 0 248 c0 137 3
252 7 255 3 4 24 7 45 7 l39 0 99 -152z m645 102 l0 -45 -67 -3 -68 -3 0 -204
0 -205 -50 0 -50 0 0 205 0 204 -62 3 -63 3 -3 33 c-6 64 -10 63 185 60 l178
-3 0 -45z m323 29 c25 -13 54 -38 69 -61 24 -35 27 -52 31 -146 5 -133 -7
-183 -57 -233 -84 -84 -221 -70 -288 29 -39 58 -44 263 -8 332 47 92 156 125
253 79z m302 -88 l5 -104 88 107 87 106 55 0 c30 0 55 -3 55 -7 0 -4 -18 -28
-40 -55 -22 -26 -58 -70 -80 -97 l-41 -48 90 -152 90 -151 -59 0 -59 0 -55 98
c-31 53 -60 104 -66 112 -8 12 -14 9 -39 -20 -28 -32 -30 -41 -31 -112 l0 -78
-50 0 -50 0 0 256 0 255 48 -3 47 -3 5 -104z m470 -146 l0 -255 -50 0 -50 0 0
255 0 255 50 0 50 0 0 -255z m448 208 l-3 -48 -112 -3 -113 -3 0 -54 0 -55
100 0 100 0 0 -45 0 -45 -100 0 -100 0 0 -60 0 -60 115 0 115 0 0 -45 0 -45
-165 0 -165 0 0 255 0 255 166 0 165 0 -3 -47z m-2083 -553 c4 -6 -1 -7 -10
-3 -10 3 -21 0 -26 -8 -14 -22 -11 -29 14 -30 l22 0 -22 -9 c-20 -8 -23 -17
-25 -67 l-2 -58 -3 55 c-3 30 -9 60 -15 67 -7 9 -7 13 1 13 6 0 11 8 11 18 0
10 3 22 7 25 10 10 41 8 48 -3z m195 -80 c0 -43 -4 -82 -10 -85 -6 -4 -10 27
-10 85 0 58 4 89 10 85 6 -3 10 -42 10 -85z m60 5 c0 -50 -4 -85 -10 -85 -6 0
-10 35 -10 85 0 50 4 85 10 85 6 0 10 -35 10 -85z m620 23 l0 -62 40 39 c22
21 42 36 45 34 3 -3 -6 -16 -20 -29 l-24 -23 24 -32 c34 -44 31 -58 -3 -17
-32 38 -62 36 -62 -5 0 -13 -4 -21 -10 -18 -5 3 -10 44 -10 91 0 49 4 84 10
84 6 0 10 -27 10 -62z m-337 11 l22 0 -22 -9 c-19 -8 -23 -17 -23 -55 0 -44 5
-50 40 -45 11 1 12 -1 4 -10 -7 -7 -21 -9 -33 -5 -17 5 -21 14 -21 54 0 26 -5
52 -12 59 -9 9 -9 12 0 12 7 0 13 8 13 18 1 16 2 16 6 0 2 -10 14 -18 26 -19z
m-501 -59 c3 -40 6 -45 29 -48 34 -4 47 13 52 68 2 34 4 27 5 -25 1 -38 -2
-65 -6 -58 -5 8 -13 9 -22 3 -42 -27 -80 11 -80 77 0 59 18 46 22 -17z m418
49 c12 -8 10 -10 -9 -5 -13 3 -33 0 -43 -5 -25 -13 -9 -34 32 -43 24 -4 30
-11 30 -30 0 -28 -27 -41 -66 -32 -38 10 -28 22 16 18 31 -3 40 -1 40 12 0 9
-13 19 -32 24 -17 4 -36 15 -42 24 -21 34 37 64 74 37z m211 1 c15 -9 19 -21
18 -68 0 -31 -3 -52 -5 -46 -4 9 -13 9 -34 1 -35 -13 -63 5 -58 37 2 16 11 22
38 24 45 4 55 15 35 36 -11 10 -25 14 -43 10 -21 -4 -24 -3 -12 5 19 14 36 14
61 1z m143 4 c25 -10 19 -24 -6 -16 -35 12 -57 3 -64 -25 -10 -38 7 -58 49
-58 27 0 33 -3 25 -12 -16 -20 -47 -15 -73 12 -30 29 -31 45 -4 79 20 26 42
32 73 20z m-466 -61 c-10 -2 -28 -2 -40 0 -13 2 -5 4 17 4 22 1 32 -1 23 -4z"/>
<path d="M1840 3697 c-56 -28 -48 -110 14 -130 68 -22 117 77 60 122 -31 24
-40 25 -74 8z"/>
<path d="M3085 3685 c-14 -13 -25 -36 -25 -50 0 -30 41 -75 68 -75 11 0 31 9
46 21 36 28 36 80 0 108 -35 27 -59 26 -89 -4z"/>
<path d="M2421 3138 c-77 -52 -99 -125 -62 -202 71 -146 283 -107 299 54 3 37
-1 57 -17 87 -32 55 -66 76 -131 81 -45 3 -61 0 -89 -20z"/>
<path d="M1825 2425 c-30 -29 -32 -68 -5 -95 26 -26 81 -26 103 -2 24 26 21
77 -5 102 -29 27 -64 25 -93 -5z"/>
<path d="M3086 2429 c-30 -24 -34 -63 -10 -97 11 -16 25 -22 54 -22 44 0 70
26 70 71 0 30 -40 69 -70 69 -10 0 -29 -9 -44 -21z"/>
<path d="M1496 1710 c-3 -8 -14 -40 -25 -70 -10 -30 -22 -63 -26 -72 -6 -16 0
-18 54 -18 34 0 61 3 61 8 -1 26 -59 164 -64 152z"/>
<path d="M2796 1777 c-35 -35 -44 -151 -20 -265 3 -15 17 -29 39 -38 31 -12
39 -12 69 0 46 19 60 69 53 191 -4 81 -7 91 -31 112 -35 30 -80 30 -110 0z"/>
<path d="M2674 1168 c-4 -6 1 -17 11 -24 16 -12 22 -12 39 -1 11 8 22 19 24
25 5 16 -64 16 -74 0z"/>
</g>
</svg>
